<svg width="38" height="38" viewBox="0 0 38 38" fill="none" xmlns="http://www.w3.org/2000/svg">
<path d="M17.4167 30.7562V19.9104L7.91667 14.4083V25.2542L17.4167 30.7562ZM20.5833 30.7562L30.0833 25.2542V14.4083L20.5833 19.9104V30.7562ZM19 17.1792L28.3813 11.7562L19 6.33332L9.61875 11.7562L19 17.1792ZM6.33333 28.025C5.83194 27.7347 5.44271 27.3521 5.16563 26.8771C4.88854 26.4021 4.75 25.8743 4.75 25.2937V12.7062C4.75 12.1257 4.88854 11.5979 5.16563 11.1229C5.44271 10.6479 5.83194 10.2653 6.33333 9.97499L17.4167 3.60207C17.9181 3.3118 18.4458 3.16666 19 3.16666C19.5542 3.16666 20.0819 3.3118 20.5833 3.60207L31.6667 9.97499C32.1681 10.2653 32.5573 10.6479 32.8344 11.1229C33.1115 11.5979 33.25 12.1257 33.25 12.7062V25.2937C33.25 25.8743 33.1115 26.4021 32.8344 26.8771C32.5573 27.3521 32.1681 27.7347 31.6667 28.025L20.5833 34.3979C20.0819 34.6882 19.5542 34.8333 19 34.8333C18.4458 34.8333 17.9181 34.6882 17.4167 34.3979L6.33333 28.025Z" fill="#3C7C54"/>
</svg>
