<svg width="38" height="38" viewBox="0 0 38 38" fill="none" xmlns="http://www.w3.org/2000/svg">
<path d="M19 33.25C15.9125 33.25 13.2934 32.1746 11.1427 30.024C8.99202 27.8733 7.91667 25.2542 7.91667 22.1667C7.91667 19.6861 8.64896 17.4628 10.1135 15.4969C11.5781 13.5309 13.4979 12.2049 15.8729 11.5187C15.3451 11.3868 14.8306 11.1955 14.3292 10.9448C13.8278 10.6941 13.3792 10.3708 12.9833 9.975C12.1125 9.10416 11.5517 8.0684 11.301 6.86771C11.0504 5.66701 10.991 4.44653 11.1229 3.20625C12.3632 3.0743 13.5837 3.13368 14.7844 3.38437C15.9851 3.63507 17.0208 4.19583 17.8917 5.06666C18.4986 5.67361 18.9406 6.35972 19.2177 7.125C19.4948 7.89028 19.6729 8.69514 19.7521 9.53958C20.0951 8.72153 20.5108 7.94965 20.999 7.22396C21.4872 6.49826 22.0347 5.83194 22.6417 5.225C22.9319 4.93472 23.3014 4.78958 23.75 4.78958C24.1986 4.78958 24.5681 4.93472 24.8583 5.225C25.1486 5.51528 25.2938 5.88472 25.2938 6.33333C25.2938 6.78194 25.1486 7.15139 24.8583 7.44166C24.2778 8.02222 23.7632 8.66215 23.3146 9.36146C22.866 10.0608 22.5361 10.8062 22.325 11.5979C24.6472 12.3368 26.5208 13.676 27.9458 15.6156C29.3708 17.5552 30.0833 19.7389 30.0833 22.1667C30.0833 25.2542 29.008 27.8733 26.8573 30.024C24.7066 32.1746 22.0875 33.25 19 33.25ZM19 30.0833C21.1903 30.0833 23.0573 29.3115 24.601 27.7677C26.1448 26.224 26.9167 24.3569 26.9167 22.1667C26.9167 19.9764 26.1448 18.1094 24.601 16.5656C23.0573 15.0219 21.1903 14.25 19 14.25C16.8097 14.25 14.9427 15.0219 13.399 16.5656C11.8552 18.1094 11.0833 19.9764 11.0833 22.1667C11.0833 24.3569 11.8552 26.224 13.399 27.7677C14.9427 29.3115 16.8097 30.0833 19 30.0833Z" fill="#3C7C54"/>
</svg>
