<svg width="38" height="38" viewBox="0 0 38 38" fill="none" xmlns="http://www.w3.org/2000/svg">
<path d="M18.2083 31.6667C16.8889 31.6667 15.7674 31.2049 14.8438 30.2812C13.9201 29.3576 13.4583 28.2361 13.4583 26.9167H16.625C16.625 27.3653 16.7767 27.7413 17.0802 28.0448C17.3837 28.3483 17.7597 28.5 18.2083 28.5C18.6569 28.5 19.033 28.3483 19.3365 28.0448C19.6399 27.7413 19.7917 27.3653 19.7917 26.9167C19.7917 26.4681 19.6399 26.092 19.3365 25.7885C19.033 25.4851 18.6569 25.3333 18.2083 25.3333H3.16667V22.1667H18.2083C19.5278 22.1667 20.6493 22.6285 21.5729 23.5521C22.4965 24.4757 22.9583 25.5972 22.9583 26.9167C22.9583 28.2361 22.4965 29.3576 21.5729 30.2812C20.6493 31.2049 19.5278 31.6667 18.2083 31.6667ZM3.16667 15.8333V12.6667H24.5417C25.2278 12.6667 25.7951 12.4424 26.2438 11.9938C26.6924 11.5451 26.9167 10.9778 26.9167 10.2917C26.9167 9.60556 26.6924 9.03819 26.2438 8.58958C25.7951 8.14097 25.2278 7.91667 24.5417 7.91667C23.8556 7.91667 23.2882 8.14097 22.8396 8.58958C22.391 9.03819 22.1667 9.60556 22.1667 10.2917H19C19 8.73472 19.5344 7.42188 20.6031 6.35312C21.6719 5.28438 22.9847 4.75 24.5417 4.75C26.0986 4.75 27.4115 5.28438 28.4802 6.35312C29.549 7.42188 30.0833 8.73472 30.0833 10.2917C30.0833 11.8486 29.549 13.1615 28.4802 14.2302C27.4115 15.299 26.0986 15.8333 24.5417 15.8333H3.16667ZM29.2917 28.5V25.3333C29.9778 25.3333 30.5451 25.109 30.9938 24.6604C31.4424 24.2118 31.6667 23.6444 31.6667 22.9583C31.6667 22.2722 31.4424 21.7049 30.9938 21.2563C30.5451 20.8076 29.9778 20.5833 29.2917 20.5833H3.16667V17.4167H29.2917C30.8486 17.4167 32.1615 17.951 33.2302 19.0198C34.299 20.0885 34.8333 21.4014 34.8333 22.9583C34.8333 24.5153 34.299 25.8281 33.2302 26.8969C32.1615 27.9656 30.8486 28.5 29.2917 28.5Z" fill="#3C7C54"/>
</svg>
