<svg width="38" height="38" viewBox="0 0 38 38" fill="none" xmlns="http://www.w3.org/2000/svg">
<g clip-path="url(#clip0_69_5)">
<path d="M24.5258 15.2475C24.2408 10.83 22.4517 6.52334 19.095 3.16667C15.7067 6.55501 13.8383 10.8617 13.4742 15.2475C15.5008 16.3242 17.3692 17.7175 19 19.4117C20.6308 17.7333 22.4992 16.34 24.5258 15.2475ZM14.2342 19.4433C14.0125 19.285 13.7592 19.1425 13.5217 18.9842C13.7592 19.1583 14.0125 19.285 14.2342 19.4433ZM19 24.4625C15.5958 19.2692 9.785 15.8333 3.16667 15.8333C3.16667 24.2567 8.48667 31.3817 15.8808 34.0258C16.8783 34.39 17.9233 34.6592 19 34.8333C20.0767 34.6433 21.1058 34.3742 22.1192 34.0258C29.5133 31.3817 34.8333 24.2567 34.8333 15.8333C28.215 15.8333 22.4042 19.2692 19 24.4625Z" fill="#3C7C54"/>
</g>
<defs>
<clipPath id="clip0_69_5">
<rect width="38" height="38" fill="white"/>
</clipPath>
</defs>
</svg>
