<svg width="38" height="38" viewBox="0 0 38 38" fill="none" xmlns="http://www.w3.org/2000/svg">
<g clip-path="url(#clip0_69_20)">
<path d="M19 3.16666C10.5608 10.3708 6.33333 16.5933 6.33333 21.85C6.33333 29.735 12.35 34.8333 19 34.8333C25.65 34.8333 31.6667 29.735 31.6667 21.85C31.6667 16.5933 27.4392 10.3708 19 3.16666ZM12.3975 22.1667C12.9833 22.1667 13.4583 22.5783 13.5692 23.1483C14.2183 26.6633 17.1792 27.8667 19.3325 27.6925C20.0133 27.6608 20.5833 28.1992 20.5833 28.88C20.5833 29.5133 20.0767 30.0358 19.4433 30.0675C16.0708 30.2733 12.1283 28.3417 11.2258 23.5442C11.0992 22.8317 11.6692 22.1667 12.3975 22.1667Z" fill="#3C7C54"/>
</g>
<defs>
<clipPath id="clip0_69_20">
<rect width="38" height="38" fill="white"/>
</clipPath>
</defs>
</svg>
